<svg xmlns="http://www.w3.org/2000/svg" xmlns:xlink="http://www.w3.org/1999/xlink" width="1019.11" height="230.48" viewBox="0 0 1019.11 230.48"><defs><clipPath id="a" transform="translate(-31.39 5.97)"><rect x="805.32" y="18.08" width="220.45" height="203.08" fill="none"/></clipPath><clipPath id="b" transform="translate(-31.39 5.97)"><path d="M947.29,39.06l-8.55,47.05q10.86-6.39,17-8.46,10.2-3.42,24.86-3.42,29.64,0,51.7,18a56.17,56.17,0,0,1,12.67,14.5V39.06Z" fill="#3c3c3b"/></clipPath><clipPath id="c" transform="translate(-31.39 5.97)"><path d="M970.16,108.67a50.73,50.73,0,0,0-14.81,1.93,28.72,28.72,0,0,0-16.61,13.2l-17.18-.72-24.95-1L911.8,14.34l0-.15Q895.94,5.13,874.28,3.13h0q-1.51-.15-3.06-.24c-.53-.05-1.07-.07-1.61-.1l-.43,0L868,2.7c-.68,0-1.36-.06-2-.07-.87,0-1.74,0-2.62-.06l-1.85,0h-.27c-.92,0-1.84,0-2.74,0q-46.12,1-64.57,32.52-10,17.1-11.17,44.86h46.18q.83-18.3,5.32-26.7,7.6-14.12,28.17-14.54c.35,0,.7,0,1.06,0h1q15.31.2,23.63,9.15,8.5,9.15,8.5,22.94,0,17-14.83,31.22-9.68,9.15-42.5,30.31-37.86,24.3-48,46.06a93.92,93.92,0,0,0-11.18,42.76H967.3l0,0c-1.1,0-2.19,0-3.27-.09q-30.45-1.22-50.56-16.35a59,59,0,0,1-13.79-14.42c-.21-.3-.41-.61-.6-.91s-.5-.8-.74-1.2a2.09,2.09,0,0,1-.17-.28c-.1-.15-.19-.31-.28-.47-.76-1.27-1.46-2.58-2.12-3.91h-56a49.64,49.64,0,0,1,11.08-11.86q6.58-5.1,24.45-16.51l16.13-10.29h44.07s-.59,9,.4,13.1q2.79,13.8,10.69,21.3t23,7.5q17.45,0,26.57-11.07t9.13-27.82q0-16.49-8.56-27.83T970.16,108.67Z" fill="#3c3c3b"/></clipPath></defs><title>logo 25 sin fondo</title><polygon points="113.77 49.11 113.78 24.05 91.57 60.75 113.77 49.11" fill="#3c3c3b"/><path d="M34.92,84c5.15.91,12.41,4.27,12.41,16h0V181c2.17-.45,6.29-1.41,11.62-3.06V124.34L90.2,164.19a112.22,112.22,0,0,0,24-18.9L56.8,73.14H31.39V83.71h1c1,0,1.34.13,2.53.26" transform="translate(-31.39 5.97)" fill="#3c3c3b"/><path d="M151.53,73.26c.2,6.65,0,31.23-12.62,55.13v48.07L120.25,153A96.8,96.8,0,0,1,94.73,170.1l40.08,51.12h15.77V99.6c.36-11,7.35-14.21,12.36-15.1a35,35,0,0,1,4.54-.28v-11Z" transform="translate(-31.39 5.97)" fill="#3c3c3b"/><path d="M140.25,73.13h0l0,0H123v11h0a21.64,21.64,0,0,1,3.52.27c4.21.75,9.8,3.16,11.71,10.38,2.09-6.65,2.09-18.62,2.05-21.62" transform="translate(-31.39 5.97)" fill="#3c3c3b"/><polygon points="113.77 49.11 113.78 24.05 91.57 60.75 113.77 49.11" fill="#3c3c3b"/><polygon points="113.78 49.11 113.78 24.05 135.98 60.75 113.78 49.11" fill="#e8b23b"/><path d="M74.91,210.53a20.5,20.5,0,0,1-3.52-.28C66.23,209.34,59,206,59,194.28h0V180.41q-5.58.85-11.62,1.37v12.5c0,11.7-7.25,15.06-12.4,16a20.87,20.87,0,0,1-3.55.28V221.1H74.91V210.53Z" transform="translate(-31.39 5.97)" fill="#3c3c3b"/><rect x="162.65" y="79.11" width="1.73" height="148.08" fill="#3c3c3b"/><path d="M252.81,149c0,10.82-5.53,16.88-15.29,16.88s-15.29-6.06-15.29-16.88V129.43h5.41V149c0,7.59,3.59,11.7,9.88,11.7s9.88-4.11,9.88-11.7V129.43h5.41Z" transform="translate(-31.39 5.97)" fill="#3c3c3b"/><polygon points="255.99 171.26 235.65 144.63 235.65 171.26 230.24 171.26 230.24 135.4 235.18 135.4 255.52 162.15 255.52 135.4 260.93 135.4 260.93 171.26 255.99 171.26" fill="#3c3c3b"/><rect x="271.41" y="135.4" width="5.41" height="35.87" fill="#3c3c3b"/><path d="M328.49,165.3l-14.76-35.87h6.06l10.46,26a35.67,35.67,0,0,1,1.36,4.41c.41-1.47.88-3,1.35-4.41l10.7-26h5.88L334.72,165.3Z" transform="translate(-31.39 5.97)" fill="#3c3c3b"/><polygon points="323.62 171.26 323.62 135.4 347.85 135.4 347.85 140.45 329.03 140.45 329.03 150.74 345.44 150.74 345.44 155.8 329.03 155.8 329.03 166.21 348.38 166.21 348.38 171.26 323.62 171.26" fill="#3c3c3b"/><path d="M416.4,165.29h-5.94L401.35,154H393v11.28h-5.41V129.43h13.23c9.47,0,14.76,4.47,14.76,12.41,0,5.64-3.35,9.81-8.76,11.46l9.58,11.59ZM400.94,149c5.82,0,9.11-2.59,9.11-7.11s-3.29-7.29-9.11-7.35H393V149Z" transform="translate(-31.39 5.97)" fill="#3c3c3b"/><path d="M444.39,136a29.05,29.05,0,0,0-11.52-2.41c-3.76,0-5.88,2.17-5.88,4.35,0,4.23,3,4.76,9.58,6.93C442.81,147,447,149.07,447,155.48c0,7.11-5.29,10.35-11.58,10.35a35.08,35.08,0,0,1-15.76-4.47l2.12-4.24c4.7,2.3,9.82,3.77,13.4,3.77,3.76,0,6.23-1.59,6.23-4.59,0-3.88-2-5.12-9.52-7.35-5.71-1.7-10.53-3.35-10.53-10.47,0-5.7,4.42-9.64,11.53-9.64A34.76,34.76,0,0,1,446,131.67Z" transform="translate(-31.39 5.97)" fill="#3c3c3b"/><rect x="423.42" y="135.4" width="5.41" height="35.87" fill="#3c3c3b"/><path d="M482,129.43c12.47,0,19.46,6.35,19.46,17.64,0,11.64-7,18.23-19.46,18.23H470.68V129.43Zm0,30.81c8.94,0,13.94-4.76,13.94-13.17,0-8.06-5-12.58-13.94-12.58H476.1v25.75Z" transform="translate(-31.39 5.97)" fill="#3c3c3b"/><path d="M508.91,165.29h-5.82L518,129.43h7.23l14.94,35.86h-5.82l-3.47-8.46H512.38ZM523,137.54a44,44,0,0,1-1.35-4.29,44.46,44.46,0,0,1-1.36,4.29l-5.87,14.29h14.46Z" transform="translate(-31.39 5.97)" fill="#3c3c3b"/><path d="M557.24,129.43c12.47,0,19.46,6.35,19.46,17.64,0,11.64-7,18.23-19.46,18.23H546V129.43Zm0,30.81c8.94,0,13.94-4.76,13.94-13.17,0-8.06-5-12.58-13.94-12.58h-5.88v25.75Z" transform="translate(-31.39 5.97)" fill="#3c3c3b"/><path d="M234.64,185.3c9.41,0,14.7,4.58,14.7,12.81s-5.24,12.76-14.47,12.76h-7.23v10.29h-5.41V185.3Zm.17,20.51c5.94,0,9.29-2.76,9.24-7.7s-3.42-7.76-9.41-7.76h-7v15.46Z" transform="translate(-31.39 5.97)" fill="#3c3c3b"/><path d="M285.32,221.16h-5.94l-9.11-11.29h-8.35v11.29h-5.41V185.29h13.23c9.47,0,14.76,4.48,14.76,12.41,0,5.65-3.35,9.82-8.76,11.47l9.58,11.58Zm-15.46-16.34c5.82,0,9.11-2.59,9.11-7.12s-3.29-7.29-9.11-7.35h-7.94v14.47Z" transform="translate(-31.39 5.97)" fill="#3c3c3b"/><rect x="260.82" y="191.26" width="5.41" height="35.87" fill="#3c3c3b"/><path d="M318.13,221.16,303.38,185.3h6.05l10.47,26a38,38,0,0,1,1.35,4.41c.41-1.47.88-3,1.35-4.41l10.7-26h5.88l-14.81,35.86Z" transform="translate(-31.39 5.97)" fill="#3c3c3b"/><path d="M342.49,221.16h-5.83L351.6,185.3h7.23l14.93,35.86H368l-3.47-8.47H346Zm14.05-27.75a44,44,0,0,1-1.35-4.29c-.3,1.12-.71,2.53-1.36,4.29L348,207.7h14.47Z" transform="translate(-31.39 5.97)" fill="#3c3c3b"/><path d="M390.82,185.3c12.46,0,19.46,6.34,19.46,17.63,0,11.65-7,18.23-19.46,18.23H379.53V185.3Zm0,30.8c8.93,0,13.93-4.76,13.93-13.17,0-8.05-5-12.58-13.93-12.58h-5.88V216.1Z" transform="translate(-31.39 5.97)" fill="#3c3c3b"/><path d="M417.93,221.16h-5.82l14.94-35.86h7.23l14.93,35.86h-5.82l-3.47-8.47H421.4ZM432,193.41c-.64-1.76-1.06-3.17-1.35-4.29a44,44,0,0,1-1.35,4.29L423.4,207.7h14.46Z" transform="translate(-31.39 5.97)" fill="#3c3c3b"/><path d="M483.4,185.3c12.47,0,19.46,6.34,19.46,17.63,0,11.65-7,18.23-19.46,18.23H472.11V185.3Zm0,30.8c8.94,0,13.94-4.76,13.94-13.17,0-8.05-5-12.58-13.94-12.58h-5.88V216.1Z" transform="translate(-31.39 5.97)" fill="#3c3c3b"/><polygon points="478.89 227.13 478.89 191.26 503.11 191.26 503.11 196.32 484.3 196.32 484.3 206.61 500.7 206.61 500.7 211.66 484.3 211.66 484.3 222.07 503.64 222.07 503.64 227.13 478.89 227.13" fill="#3c3c3b"/><polygon points="511.47 227.13 511.47 191.26 516.88 191.26 516.88 221.95 534.46 221.95 534.46 227.13 511.47 227.13" fill="#3c3c3b"/><polygon points="582.6 227.13 562.25 200.49 562.25 227.13 556.84 227.13 556.84 191.26 561.78 191.26 582.13 218.01 582.13 191.26 587.53 191.26 587.53 227.13 582.6 227.13" fill="#3c3c3b"/><path d="M660.79,203.29c0,11.76-6.29,18.4-17.11,18.4s-17-6.64-17-18.4c0-11.94,6.3-18.58,17-18.58s17.11,6.64,17.11,18.58m-5.53,0c0-8.88-4.17-13.53-11.58-13.53s-11.52,4.65-11.52,13.53,4.17,13.34,11.52,13.34,11.58-4.58,11.58-13.34" transform="translate(-31.39 5.97)" fill="#3c3c3b"/><path d="M697,221.16h-5.94L682,209.87h-8.35v11.29h-5.41V185.29h13.23c9.46,0,14.75,4.48,14.75,12.41,0,5.65-3.35,9.82-8.76,11.47L697,220.75Zm-15.47-16.34c5.82,0,9.12-2.59,9.12-7.12s-3.3-7.29-9.12-7.35h-7.93v14.47Z" transform="translate(-31.39 5.97)" fill="#3c3c3b"/><polygon points="684.39 196.32 684.39 227.13 678.98 227.13 678.98 196.32 666.45 196.32 666.45 191.26 696.91 191.26 696.91 196.32 684.39 196.32" fill="#3c3c3b"/><polygon points="701.68 227.13 701.68 191.26 725.91 191.26 725.91 196.32 707.09 196.32 707.09 206.61 723.5 206.61 723.5 211.66 707.09 211.66 707.09 222.07 726.43 222.07 726.43 227.13 701.68 227.13" fill="#3c3c3b"/><g clip-path="url(#a)"><path d="M947.29,39.06l-8.55,47.05q10.86-6.39,17-8.46,10.2-3.42,24.86-3.42,29.64,0,51.7,18a56.17,56.17,0,0,1,12.67,14.5V39.06Z" transform="translate(-31.39 5.97)" fill="#3c3c3b"/><g clip-path="url(#b)"><path d="M938.74,86.11l110.42-49S995.57,27.77,994,28.07s-45.35,2.42-46.69,3-5.27.61-8.52,4.54-7.62,10.6-7,18.47,2,21.19,2,21.19Z" transform="translate(-31.39 5.97)" fill="#3c3c3b"/><polygon points="1019.11 117.82 1017.77 43.12 907.35 92.08 960.45 101.55 1019.11 117.82" fill="#3c3c3b"/></g><path d="M970.16,108.67a50.73,50.73,0,0,0-14.81,1.93,28.72,28.72,0,0,0-16.61,13.2l-17.18-.72-24.95-1L911.8,14.34l0-.15Q895.94,5.13,874.28,3.13h0q-1.51-.15-3.06-.24c-.53-.05-1.07-.07-1.61-.1l-.43,0L868,2.7c-.68,0-1.36-.06-2-.07-.87,0-1.74,0-2.62-.06l-1.85,0h-.27c-.92,0-1.84,0-2.74,0q-46.12,1-64.57,32.52-10,17.1-11.17,44.86h46.18q.83-18.3,5.32-26.7,7.6-14.12,28.17-14.54c.35,0,.7,0,1.06,0h1q15.31.2,23.63,9.15,8.5,9.15,8.5,22.94,0,17-14.83,31.22-9.68,9.15-42.5,30.31-37.86,24.3-48,46.06a93.92,93.92,0,0,0-11.18,42.76H967.3l0,0c-1.1,0-2.19,0-3.27-.09q-30.45-1.22-50.56-16.35a59,59,0,0,1-13.79-14.42c-.21-.3-.41-.61-.6-.91s-.5-.8-.74-1.2a2.09,2.09,0,0,1-.17-.28c-.1-.15-.19-.31-.28-.47-.76-1.27-1.46-2.58-2.12-3.91h-56a49.64,49.64,0,0,1,11.08-11.86q6.58-5.1,24.45-16.51l16.13-10.29h44.07s-.59,9,.4,13.1q2.79,13.8,10.69,21.3t23,7.5q17.45,0,26.57-11.07t9.13-27.82q0-16.49-8.56-27.83T970.16,108.67Z" transform="translate(-31.39 5.97)" fill="#3c3c3b"/><g clip-path="url(#c)"><path d="M896.61,122l96.22,57.13s.85,16.43,0,15.62-36.15,0-36.15,0-19.17-12.62-21.86-17.16-17.49-19.33-19.51-19.2-10.09-3.21-10.09-3.21l-13.75-10.36Z" transform="translate(-31.39 5.97)" fill="#3c3c3b"/><path d="M974.84,101.33l36.32,17.58s2.69,11.48,2,16.93-1.34,10.29-2,14.23,0,11.2-.68,13.62S1001.4,176.1,999.72,177a45.44,45.44,0,0,1-6.89,2.15L896.61,122s3.57-5.56,4.91-5.87,17.83-3.16,25.73-4.3S974.84,101.33,974.84,101.33Z" transform="translate(-31.39 5.97)" fill="#3c3c3b"/><path d="M876.3,224.52V180.34h41l26.23,19.07s17.49,4.85,19.84,7.27,14.8,11.8,14.8,11.8v6Z" transform="translate(-31.39 5.97)" fill="#3c3c3b"/><path d="M896.61,122,780.07,221.16s-11.74-10.24-11.9-12.67,13.63-22.65,14.3-29.33.34-21.22.34-21.22L799,145.83l17.49-10.9,29.93-7.22Z" transform="translate(-31.39 5.97)" fill="#3c3c3b"/><polygon points="860.08 150.81 865.22 128 745.37 230.48 844.91 230.48 844.91 189.47 812.29 187.52 830.11 176.32 846.59 166.26 861.33 156.64 860.08 150.81" fill="#3c3c3b"/><polygon points="840.48 116.08 821.03 126.07 814.98 130.91 814.98 133.68 865.22 128 840.48 116.08" fill="#3c3c3b"/><path d="M791.81,36.26,836,53.81s-5,8.31-5.74,27.55H780.47S776.81,53.89,791.81,36.26Z" transform="translate(-31.39 5.97)" fill="#3c3c3b"/><path d="M836,53.81l21.85-10.3s16.82,2.42,18.5,3.33,7.06-.6,8.74,3.63a57.1,57.1,0,0,0,4,8.34l2,3.77s1,.31,0,4.85a57.44,57.44,0,0,1-3,9.68C886.73,80.75,880,91,880,91l-4.71,6.39-4.71,5.75,1.29,7L896.61,122,911.82,14.19,910.27,2.55,897.49-.38s13.45,2.12-6.39-1.52-23.21-3.93-23.21-3.93-15.8-.3-19.17,0L828.69-4,816.78,2.55s-8.07,2.52-11.77,4-10.77,7-10.77,7-3,9.69-3.36,11.51a36.75,36.75,0,0,1-1.68,5.14l2.61,6.07Z" transform="translate(-31.39 5.97)" fill="#3c3c3b"/></g><path d="M935.78,201.42c5.28-1.37,7.6-1.7,10-1.7,6.65,0,9.34,2.79,9.34,9.4V223h-7.36v-2.69a9,9,0,0,1-6.66,3.11c-4.81,0-7.5-1.79-7.5-7.17,0-4.86,3.21-7.08,9.63-7.08h4.53c0-2.55-.71-3.59-3.4-3.59a36.56,36.56,0,0,0-7.41,1Zm8.4,11.71c-2.41,0-3.73.24-3.73,2.17,0,1.65,1.18,2.69,3.07,2.69a5.58,5.58,0,0,0,4.2-2v-2.88Z" transform="translate(-31.39 5.97)" fill="#3c3c3b"/><path d="M966.89,203.12c2.4-2.17,4.72-3.4,7.5-3.4,4.87,0,7.18,2.6,7.18,8.74V223H974V210.58c0-2.78-.48-3.82-2.65-3.82a5.8,5.8,0,0,0-4.48,2.59V223h-7.56v-22.8h7.56Zm11.89-12.65c-.33,6.18-5.14,6.84-8.07,5.48l-2.6-1.23c-1.41-.76-2.07-.33-3.25,1.32l-2.55-.09c.28-6.09,4.81-6.71,7.83-5.34l2.55,1.23c1.51.71,2.13.23,3.36-1.47Z" transform="translate(-31.39 5.97)" fill="#3c3c3b"/><path d="M1008.38,211.67c0,7.46-4.39,11.7-11.89,11.7s-11.85-4.24-11.85-11.7c0-7.65,4.39-11.95,11.85-11.95S1008.38,204,1008.38,211.67Zm-7.41,0c0-4.39-1.6-5.95-4.48-5.95s-4.44,1.56-4.44,5.95c0,4.2,1.56,5.71,4.44,5.71S1001,215.87,1001,211.67Z" transform="translate(-31.39 5.97)" fill="#3c3c3b"/><path d="M1027.83,206.66a37.12,37.12,0,0,0-7.93-1.37c-1,0-1.6.43-1.6,1.28,0,1.41,2,1.6,5.66,2.64,4.44,1.23,6.14,2.69,6.14,6.61,0,4.91-3.31,7.55-9.54,7.55a22,22,0,0,1-10.2-2.69l1.8-5.05c2.93,1.09,6.42,2.13,8.5,2.13,1.27,0,1.88-.38,1.88-1.14,0-1.18-1.65-1.37-5.09-2.45-4.25-1.32-6.24-3.5-6.24-6.71,0-4.81,2.93-7.78,8.17-7.78a32.81,32.81,0,0,1,10.29,1.79Z" transform="translate(-31.39 5.97)" fill="#3c3c3b"/></g></svg>